<svg width="391" height="47" viewBox="0 0 391 47" fill="none" xmlns="http://www.w3.org/2000/svg">
<path d="M42.7622 18.5566C39.7056 18.5566 37.5278 20.6465 37.5278 23.5078V23.5273C37.5278 26.2031 39.4224 28.1758 42.1274 28.1758C44.061 28.1758 45.2915 27.1895 45.8091 26.0762H46.0044C46.0044 26.1836 45.9946 26.291 45.9946 26.3984C45.8872 29.0938 44.9399 31.2812 42.7036 31.2812C41.4634 31.2812 40.5942 30.6367 40.2231 29.6504L40.1938 29.5527H37.7134L37.7329 29.6602C38.1821 31.8184 40.1157 33.3516 42.7036 33.3516C46.2485 33.3516 48.3872 30.5391 48.3872 25.793V25.7734C48.3872 20.6953 45.77 18.5566 42.7622 18.5566ZM42.7524 26.2422C41.1509 26.2422 39.9888 25.0703 39.9888 23.4395V23.4199C39.9888 21.8477 41.229 20.6074 42.7817 20.6074C44.3442 20.6074 45.5649 21.8672 45.5649 23.4785V23.498C45.5649 25.0898 44.3442 26.2422 42.7524 26.2422ZM52.8208 23.8691C53.7192 23.8691 54.3735 23.1855 54.3735 22.3262C54.3735 21.457 53.7192 20.7832 52.8208 20.7832C51.9321 20.7832 51.2681 21.457 51.2681 22.3262C51.2681 23.1855 51.9321 23.8691 52.8208 23.8691ZM52.8208 31.1152C53.7192 31.1152 54.3735 30.4414 54.3735 29.5723C54.3735 28.7031 53.7192 28.0293 52.8208 28.0293C51.9321 28.0293 51.2681 28.7031 51.2681 29.5723C51.2681 30.4414 51.9321 31.1152 52.8208 31.1152ZM64.0903 33H66.5024V30.2949H68.397V28.2148H66.5024V18.9082H62.938C61.0239 21.8184 59.022 25.0605 57.1958 28.2344V30.2949H64.0903V33ZM59.5396 28.2734V28.127C60.9067 25.7344 62.5376 23.127 63.9829 20.9199H64.1294V28.2734H59.5396ZM74.2368 33H76.7563V18.9082H74.2466L70.5649 21.4961V23.8691L74.0708 21.3887H74.2368V33Z" fill="white"/>
<path fill-rule="evenodd" clip-rule="evenodd" d="M345.103 16H363.459C365.004 16 365.565 16.1609 366.13 16.4632C366.695 16.7654 367.139 17.2089 367.441 17.774C367.743 18.3391 367.904 18.8996 367.904 20.4454V25.797C367.904 27.3428 367.743 27.9033 367.441 28.4684C367.139 29.0335 366.695 29.477 366.13 29.7792C365.565 30.0815 365.004 30.2424 363.459 30.2424H345.103C343.557 30.2424 342.997 30.0815 342.432 29.7792C341.866 29.477 341.423 29.0335 341.121 28.4684C340.819 27.9033 340.658 27.3428 340.658 25.797V20.4454C340.658 18.8996 340.819 18.3391 341.121 17.774C341.423 17.2089 341.866 16.7654 342.432 16.4632C342.997 16.1609 343.557 16 345.103 16ZM345.103 17.2386C343.881 17.2386 343.454 17.321 343.016 17.5554C342.666 17.7422 342.4 18.0089 342.213 18.3582C341.978 18.7965 341.896 19.2232 341.896 20.4455V25.7971C341.896 27.0194 341.978 27.4462 342.213 27.8845C342.4 28.2337 342.666 28.5005 343.016 28.6872C343.454 28.9216 343.881 29.004 345.103 29.004H363.458C364.681 29.004 365.107 28.9216 365.546 28.6872C365.895 28.5005 366.162 28.2337 366.349 27.8845C366.583 27.4462 366.665 27.0194 366.665 25.7971V20.4455C366.665 19.2232 366.583 18.7965 366.349 18.3582C366.162 18.0089 365.895 17.7422 365.546 17.5554C365.107 17.321 364.681 17.2386 363.458 17.2386H345.103ZM371 23.0471C371 24.5786 369.143 25.524 369.143 25.524V20.5702C369.143 20.5702 371 21.5156 371 23.0471Z" fill="white"/>
<rect x="343.135" y="18.3738" width="22.2925" height="9.49494" rx="1.98155" fill="white"/>
<path fill-rule="evenodd" clip-rule="evenodd" d="M305.513 17.7415C305.485 17.8851 305.485 18.0577 305.485 18.403V27.9392C305.485 28.2845 305.485 28.4571 305.513 28.6007C305.631 29.1902 306.092 29.6511 306.681 29.7684C306.825 29.7969 306.997 29.7969 307.343 29.7969C307.688 29.7969 307.861 29.7969 308.004 29.7684C308.594 29.6511 309.055 29.1902 309.172 28.6007C309.2 28.4571 309.2 28.2845 309.2 27.9392V18.403C309.2 18.0577 309.2 17.8851 309.172 17.7415C309.055 17.152 308.594 16.6911 308.004 16.5738C307.861 16.5453 307.688 16.5453 307.343 16.5453C306.997 16.5453 306.825 16.5453 306.681 16.5738C306.092 16.6911 305.631 17.152 305.513 17.7415ZM299.664 21.3751C299.664 21.0298 299.664 20.8572 299.693 20.7136C299.81 20.1241 300.271 19.6632 300.86 19.5459C301.004 19.5174 301.176 19.5174 301.522 19.5174C301.867 19.5174 302.04 19.5174 302.183 19.5459C302.773 19.6632 303.234 20.1241 303.351 20.7136C303.379 20.8572 303.379 21.0298 303.379 21.3751V27.939C303.379 28.2843 303.379 28.4569 303.351 28.6005C303.234 29.19 302.773 29.6509 302.183 29.7681C302.04 29.7967 301.867 29.7967 301.522 29.7967C301.176 29.7967 301.004 29.7967 300.86 29.7681C300.271 29.6509 299.81 29.19 299.693 28.6005C299.664 28.4569 299.664 28.2843 299.664 27.939V21.3751ZM293.996 23.5622C293.967 23.7057 293.967 23.8784 293.967 24.2236V27.9391C293.967 28.2843 293.967 28.457 293.996 28.6005C294.113 29.1901 294.574 29.6509 295.164 29.7682C295.307 29.7968 295.48 29.7968 295.825 29.7968C296.17 29.7968 296.343 29.7968 296.486 29.7682C297.076 29.6509 297.537 29.1901 297.654 28.6005C297.683 28.457 297.683 28.2843 297.683 27.939V24.2236C297.683 23.8784 297.683 23.7057 297.654 23.5622C297.537 22.9726 297.076 22.5118 296.486 22.3945C296.343 22.3659 296.17 22.3659 295.825 22.3659C295.48 22.3659 295.307 22.3659 295.164 22.3945C294.574 22.5118 294.113 22.9726 293.996 23.5622ZM288.051 26.039C288.022 26.1826 288.022 26.3552 288.022 26.7005V27.9389C288.022 28.2842 288.022 28.4569 288.051 28.6004C288.168 29.19 288.629 29.6508 289.219 29.7681C289.362 29.7967 289.535 29.7967 289.88 29.7967C290.225 29.7967 290.398 29.7967 290.542 29.7681C291.131 29.6508 291.592 29.19 291.709 28.6004C291.738 28.4569 291.738 28.2842 291.738 27.9389V26.7005C291.738 26.3552 291.738 26.1826 291.709 26.039C291.592 25.4494 291.131 24.9886 290.542 24.8713C290.398 24.8428 290.225 24.8428 289.88 24.8428C289.535 24.8428 289.362 24.8428 289.219 24.8713C288.629 24.9886 288.168 25.4494 288.051 26.039Z" fill="white"/>
<path fill-rule="evenodd" clip-rule="evenodd" d="M324.93 19.1412C327.697 19.1413 330.358 20.2046 332.364 22.1113C332.515 22.2585 332.756 22.2567 332.905 22.1072L334.349 20.6502C334.424 20.5744 334.466 20.4717 334.465 20.3648C334.465 20.2579 334.422 20.1557 334.345 20.0807C329.081 15.0361 320.777 15.0361 315.513 20.0807C315.437 20.1556 315.394 20.2578 315.393 20.3647C315.392 20.4716 315.434 20.5743 315.509 20.6502L316.953 22.1072C317.102 22.2569 317.344 22.2588 317.495 22.1113C319.5 20.2045 322.162 19.1412 324.93 19.1412V19.1412ZM324.93 23.8815C326.45 23.8814 327.917 24.4466 329.044 25.4671C329.196 25.6119 329.436 25.6088 329.585 25.46L331.027 24.0031C331.103 23.9266 331.145 23.823 331.144 23.7152C331.143 23.6075 331.098 23.5047 331.021 23.4299C327.589 20.2374 322.274 20.2374 318.842 23.4299C318.765 23.5047 318.72 23.6076 318.719 23.7153C318.718 23.8231 318.761 23.9268 318.837 24.0031L320.278 25.46C320.427 25.6088 320.667 25.6119 320.819 25.4671C321.946 24.4472 323.411 23.8821 324.93 23.8815V23.8815ZM327.701 27.3583C327.778 27.2826 327.82 27.1784 327.818 27.0704C327.816 26.9624 327.769 26.86 327.689 26.7875C326.096 25.4402 323.763 25.4402 322.17 26.7875C322.09 26.86 322.043 26.9623 322.041 27.0703C322.039 27.1783 322.081 27.2825 322.158 27.3583L324.653 29.8755C324.726 29.9494 324.826 29.9911 324.93 29.9911C325.034 29.9911 325.133 29.9494 325.206 29.8755L327.701 27.3583Z" fill="white"/>
</svg>
